<svg xmlns="http://www.w3.org/2000/svg" width="310" height="120" viewBox="0 0 310 120">
    <svg width="175.44" height="72.604" viewBox="0 0 175.44 72.604" x="115" y="23"
        xmlns="http://www.w3.org/2000/svg">
        <path
            d="M0 .6h14.1l5.64 46.02q.12.66.24 1.8t.21 2.37.15 2.13q.12 1.68.18 3.42t.12 3.42V63h1.2q0-1.38.03-2.34l.06-1.92q.03-.96.09-2.4 0-1.56.12-3.36t.3-3.36l.12-1.56q.06-.72.18-1.44L28.38.6h14.1L31.32 72H11.16zM100.98 0v72h-13.5q0-.36.09-.93t.39-1.41q.3-.78.48-1.32t.72-1.5q.18-.3.36-.63t.36-.63l-.72-.6q-.66 1.32-1.74 2.61t-2.22 2.13q-1.2.96-2.64 1.62t-2.94.9q-.78.18-1.62.27t-1.68.09q-11.34 0-11.34-15.18V34.2q0-5.88 2.22-9.6 1.02-1.74 2.46-2.94t3.48-1.86q1.8-.6 3.96-.6.96 0 2.25.21t2.19.51q1.32.6 2.07 1.05t1.95 1.29q.96.78 1.92 1.86V0zm27.18 40.26V36.3q0-.6-.21-1.35t-.51-1.17q-.36-.48-.78-.87t-1.14-.63q-.72-.18-1.32-.18-.54 0-1.29.18t-1.17.54q-.96.72-1.32 1.98-.24.72-.24 1.32v1.38h-13.2v-3.54q0-2.64.75-5.04t2.19-4.2q2.94-3.54 8.46-4.92 1.32-.3 2.85-.45t3.15-.15q8.22 0 12.78 3.9 4.5 3.9 4.5 10.86V72h-13.5q0-.54.12-1.29t.3-1.29q.24-.66.51-1.29t.63-1.35q.3-.54.84-1.2l-.72-.6q-.96 1.68-1.95 2.79t-2.13 2.01q-1.08.9-2.37 1.53t-2.91.93q-.72.18-1.47.27t-1.53.09q-1.98 0-3.87-.57t-3.57-1.95q-1.5-1.14-2.52-2.97t-1.5-3.93q-.3-1.08-.42-2.28t-.12-2.46q0-3.12.84-5.73t2.64-4.71 4.47-3.57 6.33-2.55q1.86-.54 3.96-.93t4.44-.69M147.66 72V19.8h13.5q0 .66-.12 1.17t-.42 1.35l-.36 1.08q-.06.18-.21.39t-.57 1.23q-.3.66-.72 1.2l.72.6q.96-1.44 1.89-2.52t2.37-2.1q2.4-1.68 5.76-2.16 1.56-.24 3.6-.24h2.34l-.6 12.9h-3.78q-4.74 0-7.26 1.5-2.64 1.62-2.64 4.44V72zm-88.08 0h-13.5V19.8h13.5zm28.5-17.76V37.56q0-1.98-.78-3.42-.24-.42-.87-.99t-1.41-.81-1.74-.24q-.84 0-1.62.21t-1.38.75q-.6.48-.99 1.05t-.57 1.59q-.24.96-.24 1.86v16.68q0 1.98.78 3.36.24.48.87 1.05t1.47.81q.72.24 1.68.24.84 0 1.62-.21t1.44-.75q.54-.48.93-1.05t.63-1.59q.18-.96.18-1.86M45.36 8.34q0-2.58 1.44-4.62.6-.96 1.59-1.68t2.07-1.02q1.14-.36 2.4-.36 1.2 0 2.34.33t2.16 1.05Q59.28 3.48 60 5.82q.36 1.2.36 2.52 0 3.3-2.1 5.58t-5.4 2.28q-2.58 0-4.44-1.5-.96-.72-1.62-1.65t-1.08-2.25q-.36-1.14-.36-2.46m82.8 51.06V48.3q-1.8.6-3.24 1.2t-2.52 1.44q-.96.72-1.71 1.56t-1.05 1.86q-.36 1.08-.36 2.04 0 .9.21 1.65t.51 1.11q.78 1.2 2.1 1.5.72.24 1.38.24 2.04 0 4.68-1.5"
            fill="#64007b" />
    </svg>
    <g transform="translate(20 15)" fill="#64007b">
        <rect width="80" height="80" rx="5" ry="5" />
        <rect width="10" height="10" y="70" rx="0" ry="0" />
        <path d="M0 100V79h20z" />
    </g>
    <g transform="translate(42 55)" stroke="#1a1c28" fill="#1a1c28">
        <circle r="10" fill="none" stroke-width="9" />
        <rect width="40" height="10" x="10" y="-5" rx="2" ry="2" stroke="none" />
        <rect width="8" height="11" x="42" y="2" rx="2" ry="2" stroke="none" />
        <rect width="8" height="11" x="32" y="2" rx="2" ry="2" stroke="none" />
    </g>
</svg>
